<svg width="183" height="183" viewBox="0 0 183 183" fill="none" xmlns="http://www.w3.org/2000/svg">
<g filter="url(#filter0_d_1_186)">
<path d="M157 73.9224V39.2241C157 29.2672 148.9 21.1207 139 21.1207H105.5C105.5 8.62931 93.92 0 81.5 0C69.08 0 56.5 8.62931 56.5 21.1207H22C12.1 21.1207 4.09 29.2672 4.09 39.2241V73.6207C17.5 73.6207 28.5 84.5733 28.5 98.0603C28.5 111.547 17.41 122.5 4 122.5V156.897C4 166.853 12.1 175 22 175H56.2C69.5 175 65.59 175 79 175C92.41 175 86.5 175 99.5 175H104.8H139C148.9 175 157 166.853 157 156.897V122.701C169.42 122.701 179 110.552 179 98.0603C179 85.569 169.42 73.9224 157 73.9224Z" fill="url(#paint0_linear_1_186)"/>
</g>
<path d="M89.7717 105.095L99.0899 107.972L96.2982 117.575L94.8561 117.13C92.4378 116.383 90.6923 114.211 90.431 111.624L89.7717 105.095Z" fill="#CDD6F4"/>
<path d="M108.408 110.849L117.726 113.726L114.935 123.329L105.616 120.452L108.408 110.849Z" fill="#CDD6F4"/>
<path d="M99.0899 107.972L108.408 110.849L105.616 120.452L96.2982 117.575L99.0899 107.972Z" fill="#1E1E2E"/>
<path d="M117.726 113.726L127.045 116.603L124.253 126.206L114.935 123.329L117.726 113.726Z" fill="#1E1E2E"/>
<path d="M94.4121 54.2051L103.73 57.082L100.939 66.6847L91.6204 63.8078L94.4121 54.2051Z" fill="#CDD6F4"/>
<path d="M85.0939 51.3281L94.4121 54.2051L91.6204 63.8078L82.3021 60.9308L85.0939 51.3281Z" fill="#1E1E2E"/>
<path d="M73.9269 89.7388L83.2452 92.6158L80.4534 102.218L71.1351 99.3415L73.9269 89.7388Z" fill="#1E1E2E"/>
<path d="M67.4004 77.2592L76.7186 80.1362L73.9269 89.7388L64.6086 86.8619L67.4004 77.2592Z" fill="#1E1E2E"/>
<path d="M86.0369 83.0131L95.3552 85.8901L92.5634 95.4927L83.2452 92.6158L86.0369 83.0131Z" fill="#1E1E2E"/>
<path d="M79.5104 70.5335L88.8286 73.4104L86.0369 83.0131L76.7186 80.1362L79.5104 70.5335Z" fill="#1E1E2E"/>
<path d="M72.9838 58.0538L82.3021 60.9308L79.5104 70.5335L70.1921 67.6565L72.9838 58.0538Z" fill="#1E1E2E"/>
<path d="M91.6204 63.8078L100.939 66.6847L98.1469 76.2874L88.8286 73.4104L91.6204 63.8078Z" fill="#1E1E2E"/>
<path d="M75.7756 48.4512L85.0939 51.3281L82.3021 60.9308L72.9838 58.0538L75.7756 48.4512Z" fill="#CDD6F4"/>
<path d="M103.73 57.082L105.173 57.5273C107.591 58.2739 109.336 60.4458 109.598 63.0333L110.257 69.5617L100.939 66.6847L103.73 57.082Z" fill="#1E1E2E"/>
<path d="M119.575 72.4386L128.893 75.3156L126.102 84.9182L116.783 82.0413L119.575 72.4386Z" fill="#CDD6F4"/>
<path d="M110.257 69.5617L119.575 72.4386L116.783 82.0413L107.465 79.1643L110.257 69.5617Z" fill="#1E1E2E"/>
<path d="M100.939 66.6847L110.257 69.5617L107.465 79.1643L98.1469 76.2874L100.939 66.6847Z" fill="#CDD6F4"/>
<path d="M128.893 75.3156L138.212 78.1925L135.42 87.7952L126.102 84.9182L128.893 75.3156Z" fill="#1E1E2E"/>
<path d="M107.465 79.1643L116.783 82.0413L113.992 91.644L104.673 88.767L107.465 79.1643Z" fill="#CDD6F4"/>
<path d="M98.1469 76.2874L107.465 79.1643L104.673 88.767L95.3552 85.8901L98.1469 76.2874Z" fill="#1E1E2E"/>
<path d="M88.8286 73.4104L98.1469 76.2874L95.3552 85.8901L86.0369 83.0131L88.8286 73.4104Z" fill="#CDD6F4"/>
<path d="M116.783 82.0413L126.102 84.9182L123.31 94.5209L113.992 91.644L116.783 82.0413Z" fill="#1E1E2E"/>
<path d="M113.992 91.644L123.31 94.5209L120.518 104.124L111.2 101.247L113.992 91.644Z" fill="#CDD6F4"/>
<path d="M104.673 88.767L113.992 91.644L111.2 101.247L101.882 98.3697L104.673 88.767Z" fill="#1E1E2E"/>
<path d="M95.3552 85.8901L104.673 88.767L101.882 98.3697L92.5634 95.4927L95.3552 85.8901Z" fill="#CDD6F4"/>
<path d="M123.31 94.5209L132.628 97.3979L129.836 107.001L120.518 104.124L123.31 94.5209Z" fill="#1E1E2E"/>
<path d="M101.882 98.3697L111.2 101.247L108.408 110.849L99.0899 107.972L101.882 98.3697Z" fill="#CDD6F4"/>
<path d="M92.5634 95.4927L101.882 98.3697L99.0899 107.972L89.7717 105.095L92.5634 95.4927Z" fill="#1E1E2E"/>
<path d="M83.2452 92.6158L92.5634 95.4927L89.7717 105.095L80.4534 102.218L83.2452 92.6158Z" fill="#CDD6F4"/>
<path d="M126.102 84.9182L135.42 87.7952L132.628 97.3979L123.31 94.5209L126.102 84.9182Z" fill="#CDD6F4"/>
<path d="M120.518 104.124L129.836 107.001L127.045 116.603L117.726 113.726L120.518 104.124Z" fill="#CDD6F4"/>
<path d="M55.2904 83.9849L64.6086 86.8619L61.8169 96.4646L58.4889 95.4371C55.1806 94.4156 53.3021 90.8238 54.2933 87.4145L55.2904 83.9849Z" fill="#1E1E2E"/>
<path d="M64.6626 51.7474C65.6538 48.338 69.1393 46.4023 72.4476 47.4237L75.7756 48.4512L72.9838 58.0538L63.6656 55.1769L64.6626 51.7474Z" fill="#1E1E2E"/>
<path d="M60.8738 64.7796L70.1921 67.6565L67.4004 77.2592L58.0821 74.3823L60.8738 64.7796Z" fill="#1E1E2E"/>
<path d="M63.6656 55.1769L72.9838 58.0538L70.1921 67.6565L60.8738 64.7796L63.6656 55.1769Z" fill="#CDD6F4"/>
<path d="M58.0821 74.3823L67.4004 77.2592L64.6086 86.8619L55.2904 83.9849L58.0821 74.3823Z" fill="#CDD6F4"/>
<path d="M82.3021 60.9308L91.6204 63.8078L88.8286 73.4104L79.5104 70.5335L82.3021 60.9308Z" fill="#CDD6F4"/>
<path d="M70.1921 67.6565L79.5104 70.5335L76.7186 80.1362L67.4004 77.2592L70.1921 67.6565Z" fill="#CDD6F4"/>
<path d="M64.6086 86.8619L73.9269 89.7388L71.1351 99.3415L61.8169 96.4646L64.6086 86.8619Z" fill="#CDD6F4"/>
<path d="M129.836 107.001L139.155 109.878L136.363 119.48L127.045 116.603L129.836 107.001Z" fill="#1E1E2E"/>
<path d="M135.42 87.7952L144.738 90.6721L141.946 100.275L132.628 97.3979L135.42 87.7952Z" fill="#1E1E2E"/>
<path d="M138.212 78.1925L141.54 79.22C144.848 80.2414 146.726 83.8333 145.735 87.2426L144.738 90.6721L135.42 87.7952L138.212 78.1925Z" fill="#CDD6F4"/>
<path d="M132.628 97.3979L141.946 100.275L139.155 109.878L129.836 107.001L132.628 97.3979Z" fill="#CDD6F4"/>
<path d="M127.045 116.603L136.363 119.48L135.366 122.91C134.375 126.319 130.889 128.255 127.581 127.233L124.253 126.206L127.045 116.603Z" fill="#CDD6F4"/>
<path d="M76.7186 80.1362L86.0369 83.0131L83.2452 92.6158L73.9269 89.7388L76.7186 80.1362Z" fill="#CDD6F4"/>
<path d="M111.2 101.247L120.518 104.124L117.726 113.726L108.408 110.849L111.2 101.247Z" fill="#1E1E2E"/>
<path d="M60.3871 41.0643C61.0479 38.7914 63.3716 37.5009 65.5771 38.1819L67.1666 38.6726C69.3721 39.3535 70.6244 41.7481 69.9636 44.021L39.753 147.936C39.0922 150.209 36.7686 151.499 34.563 150.818L32.9736 150.327C30.768 149.646 29.5157 147.252 30.1765 144.979L60.3871 41.0643Z" fill="#6C7086"/>
<defs>
<filter id="filter0_d_1_186" x="0" y="0" width="183" height="183" filterUnits="userSpaceOnUse" color-interpolation-filters="sRGB">
<feFlood flood-opacity="0" result="BackgroundImageFix"/>
<feColorMatrix in="SourceAlpha" type="matrix" values="0 0 0 0 0 0 0 0 0 0 0 0 0 0 0 0 0 0 127 0" result="hardAlpha"/>
<feOffset dy="4"/>
<feGaussianBlur stdDeviation="2"/>
<feComposite in2="hardAlpha" operator="out"/>
<feColorMatrix type="matrix" values="0 0 0 0 0 0 0 0 0 0 0 0 0 0 0 0 0 0 0.25 0"/>
<feBlend mode="normal" in2="BackgroundImageFix" result="effect1_dropShadow_1_186"/>
<feBlend mode="normal" in="SourceGraphic" in2="effect1_dropShadow_1_186" result="shape"/>
</filter>
<linearGradient id="paint0_linear_1_186" x1="91.5" y1="0" x2="91.5" y2="175" gradientUnits="userSpaceOnUse">
<stop stop-color="#89B4FA"/>
<stop offset="1" stop-color="#B4BEFE"/>
</linearGradient>
</defs>
</svg>
